<?xml version="1.0" standalone="no"?>
<!DOCTYPE svg PUBLIC "-//W3C//DTD SVG 20010904//EN"
 "http://www.w3.org/TR/2001/REC-SVG-20010904/DTD/svg10.dtd">
<svg version="1.0" xmlns="http://www.w3.org/2000/svg"
 width="300.000000pt" height="251.000000pt" viewBox="0 0 300.000000 251.000000"
 preserveAspectRatio="xMidYMid meet">
<metadata>
Created by potrace 1.10, written by Peter Selinger 2001-2011
</metadata>
<g transform="translate(0.000000,251.000000) scale(0.100000,-0.100000)"
fill="#000000" stroke="none">
<path d="M1430 2313 c0 -6 45 -13 108 -16 59 -3 141 -14 182 -25 73 -19 224
-81 217 -89 -2 -2 -29 8 -59 21 -89 39 -164 56 -308 67 -100 7 -166 7 -254 -2
-67 -7 -112 -15 -101 -19 15 -5 13 -8 -13 -13 -63 -13 -187 -71 -273 -129
-209 -140 -359 -363 -416 -623 -32 -146 -15 -388 37 -541 28 -79 7 -56 -25 29
-50 134 -69 366 -44 530 16 105 90 282 161 385 17 24 28 46 25 48 -8 9 -111
-160 -143 -236 -41 -100 -61 -185 -69 -300 -15 -213 33 -421 134 -581 147
-233 345 -398 568 -475 115 -40 94 -45 -33 -9 -263 76 -513 285 -620 519 -37
80 -73 235 -86 367 -10 100 -9 131 5 219 18 109 64 238 123 342 41 73 112 168
123 165 4 -1 34 24 67 57 103 103 230 176 383 222 42 12 68 23 59 23 -10 1
-52 -10 -95 -24 -42 -13 -79 -23 -80 -21 -5 5 101 47 171 68 44 13 50 17 21
12 -133 -20 -330 -129 -478 -264 -226 -208 -349 -522 -317 -814 20 -183 49
-290 105 -392 135 -244 355 -419 620 -496 73 -21 100 -23 300 -23 194 0 230 3
309 23 298 75 558 298 677 580 38 91 57 167 70 277 10 87 4 245 -10 245 -3 0
-6 -66 -6 -148 0 -179 -18 -263 -80 -391 -64 -132 -132 -227 -222 -311 -211
-198 -521 -299 -799 -260 -93 13 -251 59 -294 86 -18 11 -19 13 -5 9 11 -4 52
-17 92 -30 283 -93 603 -40 863 142 98 69 237 217 293 310 92 155 145 371 134
551 -3 52 -9 98 -14 103 -4 4 -6 -24 -2 -64 12 -159 -24 -359 -91 -504 -37
-80 -98 -178 -106 -171 -2 3 12 35 32 72 74 138 115 282 113 388 -2 51 -2 50
-10 -21 -17 -142 -66 -288 -140 -408 -42 -70 -51 -93 -19 -53 11 14 20 20 20
14 0 -6 -9 -19 -20 -29 -11 -10 -20 -15 -20 -12 0 3 -39 -34 -87 -82 -144
-145 -314 -226 -527 -252 -166 -21 -389 14 -551 86 -32 14 -63 25 -69 25 -6 0
-48 29 -93 65 -298 235 -417 615 -317 1013 46 184 160 358 325 499 77 66 252
154 364 184 224 59 457 22 665 -107 97 -59 102 -61 61 -25 -45 40 -158 99
-246 128 -67 23 -68 23 -22 18 67 -9 177 -48 266 -95 58 -31 69 -35 46 -16
-16 14 -34 26 -38 26 -5 0 -5 4 -2 10 4 6 -1 7 -11 3 -12 -4 -15 -3 -10 5 10
17 -138 86 -236 111 -91 23 -278 39 -278 24z"/>
<path d="M2002 2063 c4 -16 179 -195 185 -190 2 3 -39 49 -92 104 -53 54 -95
93 -93 86z"/>
<path d="M2206 1945 c97 -105 138 -143 103 -97 -49 64 -67 84 -127 145 -109
111 -92 76 24 -48z"/>
<path d="M1314 1801 c-57 -25 -74 -122 -29 -166 40 -41 135 -30 135 15 0 26
-16 26 -23 0 -4 -15 -14 -20 -40 -20 -44 0 -67 26 -67 74 0 58 14 76 59 76 31
0 40 -4 45 -22 l7 -23 10 24 c5 14 6 28 1 33 -13 13 -75 19 -98 9z"/>
<path d="M1464 1798 c-2 -3 1 -8 7 -10 16 -5 16 -151 1 -156 -27 -9 -9 -22 28
-22 22 0 40 5 40 10 0 6 -7 10 -15 10 -10 0 -15 11 -15 35 0 50 22 45 61 -12
18 -27 33 -50 35 -52 1 -1 7 0 13 3 6 4 -3 26 -24 56 l-35 50 25 40 c14 22 30
40 36 40 5 0 8 4 5 8 -3 5 -20 6 -38 4 -18 -3 -28 -7 -21 -9 19 -7 -17 -73
-39 -73 -14 0 -18 8 -18 35 0 19 5 35 10 35 6 0 10 3 10 8 0 9 -60 10 -66 0z"/>
<path d="M2364 1569 c-10 -17 13 -36 27 -22 12 12 4 33 -11 33 -5 0 -12 -5
-16 -11z"/>
<path d="M1438 1515 c-2 -3 -28 -6 -57 -8 -30 -2 -59 -11 -68 -20 -14 -14 -9
-14 52 -1 37 8 71 12 75 9 5 -3 11 -1 14 4 7 10 -8 24 -16 16z"/>
<path d="M1490 1500 c0 -8 12 -12 35 -10 3 1 32 -13 65 -31 57 -30 103 -73
142 -129 14 -20 17 -21 17 -7 1 9 -2 17 -7 17 -4 0 -16 17 -27 38 -20 38 -38
54 -65 59 -8 1 -16 7 -18 13 -5 14 -100 60 -124 60 -10 0 -18 -4 -18 -10z"/>
<path d="M1234 1445 c-15 -14 -32 -25 -38 -25 -7 0 -18 -16 -25 -35 -7 -19
-17 -35 -22 -35 -5 0 -9 -7 -9 -15 0 -8 -4 -15 -10 -15 -5 0 -10 -9 -10 -19 0
-11 -6 -26 -13 -33 -15 -15 -20 -58 -7 -58 5 0 11 15 15 33 16 72 77 156 155
209 19 13 21 17 8 17 -9 1 -29 -10 -44 -24z"/>
<path d="M1264 1297 c-2 -7 -3 -65 -2 -128 l3 -114 69 -5 c68 -5 75 -15 24
-33 -10 -4 -18 -11 -18 -17 0 -6 36 -10 95 -10 59 0 95 4 95 10 0 6 -8 13 -17
17 -53 19 -45 28 28 33 l74 5 0 125 0 125 -173 3 c-136 2 -174 0 -178 -11z
m344 -119 l-3 -113 -165 0 -165 0 -3 113 -3 112 171 0 171 0 -3 -112z m-136
-152 l17 -23 -54 0 -54 0 17 23 c22 30 52 30 74 0z"/>
<path d="M1290 1195 l0 -85 150 0 150 0 0 85 0 85 -150 0 -150 0 0 -85z m290
0 l0 -75 -140 0 -140 0 0 75 0 75 140 0 140 0 0 -75z"/>
<path d="M1756 1280 c15 -64 21 -117 18 -142 -2 -16 1 -28 7 -28 17 0 6 147
-13 173 l-17 22 5 -25z"/>
<path d="M1091 1115 c1 -41 6 -70 14 -79 7 -7 20 -30 29 -50 8 -20 22 -44 31
-52 8 -9 15 -21 15 -29 0 -13 29 -29 38 -21 2 3 -11 24 -29 48 -19 24 -42 57
-51 74 -17 30 -40 143 -32 156 2 4 0 9 -5 13 -6 3 -10 -19 -10 -60z"/>
<path d="M1757 1045 c-27 -79 -116 -185 -155 -185 -7 0 -12 -4 -12 -10 0 -5 3
-10 6 -10 8 0 48 22 54 29 3 4 17 14 33 24 15 10 27 22 27 28 0 6 11 25 24 42
13 18 27 42 31 55 3 12 10 22 14 22 5 0 9 11 9 25 0 39 -15 30 -31 -20z"/>
<path d="M1250 862 c0 -10 99 -62 118 -62 29 0 8 17 -43 35 -30 10 -55 22 -55
27 0 4 -4 8 -10 8 -5 0 -10 -4 -10 -8z"/>
<path d="M1558 835 c-9 -9 -59 -18 -101 -17 -20 0 -40 -4 -43 -9 -3 -5 24 -9
59 -9 50 0 69 4 87 20 13 11 19 20 13 20 -5 0 -12 -2 -15 -5z"/>
</g>
</svg>
