<?xml version="1.0" standalone="no"?>
<!DOCTYPE svg PUBLIC "-//W3C//DTD SVG 20010904//EN"
 "http://www.w3.org/TR/2001/REC-SVG-20010904/DTD/svg10.dtd">
<svg version="1.0" xmlns="http://www.w3.org/2000/svg"
 width="300.000000pt" height="200.000000pt" viewBox="0 0 300.000000 200.000000"
 preserveAspectRatio="xMidYMid meet">
<metadata>
Created by potrace 1.10, written by Peter Selinger 2001-2011
</metadata>
<g transform="translate(0.000000,200.000000) scale(0.100000,-0.100000)"
fill="#000000" stroke="none">
<path d="M1085 1993 c-42 -11 -65 -38 -109 -125 -25 -49 -46 -96 -46 -103 0
-8 -6 -18 -13 -22 -7 -4 -29 -33 -50 -64 -20 -31 -43 -59 -50 -62 -7 -3 -22
-27 -32 -54 -25 -65 -82 -133 -113 -133 -13 0 -40 11 -60 25 -45 31 -84 32
-130 3 -26 -16 -52 -22 -96 -22 -52 -1 -69 -6 -110 -33 -26 -18 -71 -37 -100
-44 -31 -7 -58 -19 -64 -30 -15 -24 1 -25 38 -4 14 8 39 14 57 15 20 0 48 12
77 35 49 37 86 44 130 24 22 -10 29 -8 56 15 45 37 102 35 154 -4 22 -17 45
-30 52 -30 28 0 84 64 123 140 23 44 58 101 78 127 32 42 123 212 123 229 0 4
16 27 36 50 27 34 42 44 65 44 68 0 106 -60 93 -147 -5 -40 -4 -46 7 -35 9 8
14 34 14 66 -1 40 -8 63 -30 99 -30 47 -46 53 -100 40z"/>
<path d="M2590 1756 c0 -135 4 -247 8 -250 5 -3 19 5 33 17 l24 22 -3 228 -3
227 -30 0 -29 0 0 -244z"/>
<path d="M1925 1970 c-4 -6 6 -10 24 -10 41 0 89 -44 140 -129 23 -38 41 -73
41 -78 0 -5 18 -27 41 -48 22 -22 54 -65 71 -95 44 -77 85 -128 118 -145 25
-13 29 -12 49 9 11 12 21 27 21 34 0 21 41 34 86 27 52 -7 57 1 13 19 -27 11
-36 11 -62 -2 -16 -8 -38 -23 -48 -33 -36 -36 -87 -21 -118 34 -31 56 -71 117
-92 142 -10 11 -19 27 -21 35 -2 8 -12 17 -22 20 -10 3 -31 28 -45 56 -14 28
-42 71 -61 97 -46 59 -118 95 -135 67z"/>
<path d="M1454 1925 c-4 -8 -9 -13 -13 -11 -3 2 -15 0 -26 -5 -20 -9 -20 -9 0
-8 37 2 45 -1 45 -17 0 -9 10 -28 21 -42 21 -26 21 -26 14 -3 -5 18 -4 21 6
14 8 -4 32 -19 54 -33 30 -19 36 -26 22 -28 -24 -5 -73 15 -113 45 -38 28 -43
29 -41 4 0 -11 5 -17 9 -15 4 3 8 1 8 -5 0 -5 9 -12 19 -16 13 -4 18 -12 14
-22 -5 -13 -1 -15 21 -9 16 4 48 4 71 0 34 -5 42 -10 38 -23 -3 -10 -2 -12 4
-5 26 36 125 2 150 -52 11 -22 21 -30 31 -26 10 3 13 1 8 -6 -3 -6 -2 -13 3
-17 6 -3 7 -13 4 -23 -6 -15 -4 -15 9 -4 15 12 15 17 -1 65 -13 39 -23 53 -39
55 -12 2 -22 8 -22 13 0 5 -11 19 -24 30 -14 12 -22 27 -20 33 5 14 -33 52
-43 43 -3 -4 -12 -2 -20 4 -8 7 -13 8 -13 1 0 -5 7 -15 15 -22 11 -9 12 -16 5
-25 -5 -6 -7 -15 -3 -18 11 -11 -7 -8 -35 7 -15 8 -37 25 -49 38 -43 46 -67
60 -57 34 4 -10 0 -14 -13 -12 -10 2 -20 14 -24 32 l-6 30 49 -2 c26 -2 48 2
48 7 0 16 -100 11 -106 -6z m228 -95 c-2 -7 5 -21 14 -31 10 -11 15 -21 12
-24 -7 -8 -35 27 -43 54 -5 17 -4 22 6 18 8 -2 13 -10 11 -17z"/>
<path d="M1578 1918 c12 -12 92 -40 92 -32 0 2 -13 10 -30 19 -16 9 -30 12
-30 8 0 -4 -5 -2 -12 5 -7 7 -16 12 -22 12 -6 0 -5 -5 2 -12z"/>
<path d="M1577 1860 c26 -27 49 -47 51 -45 11 10 -29 60 -61 75 l-38 19 48
-49z"/>
<path d="M1338 1875 c-2 -11 -9 -19 -16 -17 -8 1 -11 -2 -7 -8 3 -5 2 -10 -2
-10 -5 0 -8 -17 -8 -39 0 -37 0 -38 25 -27 14 6 32 17 40 25 10 9 15 10 18 2
2 -6 12 -11 22 -11 18 0 18 2 3 28 -16 28 -44 40 -40 18 1 -6 -6 -10 -15 -10
-10 1 -15 -3 -12 -8 4 -6 -2 -8 -12 -6 -9 1 -18 8 -18 13 -1 13 76 54 88 47 5
-3 6 0 2 6 -5 9 -13 9 -27 2 -11 -7 -19 -7 -19 -1 0 5 6 11 13 14 6 3 2 4 -10
4 -14 -1 -23 -9 -25 -22z"/>
<path d="M1922 1878 c-19 -19 -14 -73 11 -125 12 -27 24 -50 27 -53 6 -6 22
-31 60 -97 17 -28 38 -57 45 -63 8 -7 15 -17 15 -22 0 -5 20 -36 45 -68 53
-69 92 -142 100 -190 3 -18 7 -36 9 -39 6 -10 20 -134 19 -167 -2 -38 -26 -89
-60 -125 -15 -16 -21 -29 -14 -33 19 -12 79 66 87 114 4 25 9 52 12 60 7 24 2
102 -9 137 -5 17 -12 43 -15 58 -11 62 -38 121 -79 171 -24 30 -50 64 -56 76
-7 12 -18 29 -26 36 -8 8 -27 41 -44 73 -16 33 -34 59 -39 59 -19 0 -52 94
-54 149 -1 55 -12 71 -34 49z"/>
<path d="M1009 1753 c-35 -70 -78 -146 -95 -168 -31 -41 -34 -65 -8 -65 8 0
14 10 14 24 0 14 4 27 9 30 5 3 19 25 31 48 12 24 31 49 41 56 10 7 19 22 19
32 0 18 7 34 56 117 13 23 16 35 8 43 -7 7 -29 -26 -75 -117z"/>
<path d="M1340 1764 c-14 -7 -41 -16 -61 -19 -32 -5 -36 -9 -37 -35 -1 -39
-12 -73 -26 -82 -8 -6 -8 -8 1 -8 8 0 9 -9 2 -32 -12 -44 -12 -185 1 -193 6
-3 10 -13 10 -22 0 -12 -3 -13 -13 -5 -10 9 -13 3 -11 -27 1 -22 7 -47 12 -57
12 -21 11 -33 17 181 3 150 6 167 23 178 6 4 12 15 12 23 0 18 106 67 131 61
9 -3 23 -1 30 4 10 6 8 9 -9 9 -13 0 -20 4 -17 10 3 6 18 10 32 10 42 0 20 11
-28 14 -24 2 -55 -3 -69 -10z"/>
<path d="M1137 1695 c-20 -50 -27 -83 -23 -106 3 -19 8 -142 11 -273 3 -131 7
-244 8 -250 1 -7 -20 -11 -60 -11 -35 0 -63 -3 -63 -7 0 -5 5 -8 11 -8 23 0 1
-25 -27 -31 -18 -4 -2 -7 45 -8 58 -1 71 2 63 12 -8 9 -1 16 27 28 l38 16 0
-39 c0 -38 -16 -67 -18 -31 0 16 -1 16 -8 -2 -6 -16 -8 -124 -2 -144 1 -2 11
4 23 15 21 19 21 19 11 0 -6 -10 -8 -28 -6 -40 3 -15 2 -17 -4 -8 -5 7 -17 10
-26 6 -10 -3 -17 -1 -17 5 0 6 -5 11 -11 11 -6 0 -9 -10 -7 -22 2 -17 11 -22
47 -25 47 -5 86 -24 113 -57 15 -19 16 -18 9 20 -8 43 -44 108 -54 98 -3 -4 0
-19 9 -35 8 -17 10 -29 4 -29 -5 0 -10 7 -10 16 0 8 -4 12 -10 9 -5 -3 -10 1
-10 10 0 9 -4 14 -9 10 -5 -3 -12 -1 -16 5 -3 6 0 12 7 15 16 6 15 71 -3 542
-6 161 -9 308 -5 325 12 65 -9 56 -37 -17z"/>
<path d="M1593 1678 c4 -26 9 -28 50 -19 21 5 37 5 37 0 0 -5 5 -9 11 -9 8 0
8 5 -1 15 -7 8 -16 12 -21 9 -5 -3 -9 -1 -9 4 0 6 -16 12 -35 14 -28 3 -34 1
-32 -14z"/>
<path d="M1375 1670 c4 -6 -4 -10 -19 -10 -14 0 -27 -4 -31 -9 -6 -10 32 -41
50 -41 5 0 -3 9 -19 20 l-30 19 65 -4 c43 -3 59 -1 49 5 -12 8 -10 10 9 10 40
0 15 13 -35 17 -30 2 -43 0 -39 -7z"/>
<path d="M1597 1604 c-1 -1 -15 -5 -31 -8 -46 -8 -43 -16 6 -15 25 1 56 8 69
15 24 12 23 13 -8 12 -18 -1 -34 -2 -36 -4z"/>
<path d="M1777 1588 c-3 -12 -1 -30 5 -41 9 -17 12 -43 17 -139 1 -33 11 -36
28 -8 11 16 10 18 -4 13 -11 -4 -14 -2 -11 8 8 25 47 23 57 -3 l10 -23 0 23
c1 17 -7 26 -29 33 -29 11 -30 13 -30 71 0 48 -3 59 -14 55 -10 -4 -13 -1 -10
7 3 8 1 17 -4 20 -5 3 -12 -4 -15 -16z"/>
<path d="M2135 1580 c-3 -6 7 -22 23 -38 45 -42 85 -109 79 -132 -3 -11 -1
-20 5 -20 13 0 38 -26 38 -41 0 -8 7 -6 20 6 18 16 18 20 5 45 -8 16 -18 30
-22 32 -12 5 -103 127 -103 137 0 5 -7 12 -16 15 -21 8 -22 8 -29 -4z"/>
<path d="M1065 1533 c-10 -21 -21 -40 -26 -43 -15 -10 -102 -146 -135 -212
l-34 -68 110 0 c60 0 110 4 110 9 0 12 -51 21 -116 21 -29 0 -55 4 -58 9 -3 4
12 34 34 65 22 31 37 56 34 56 -3 0 6 14 20 31 28 33 90 158 83 165 -2 3 -12
-12 -22 -33z"/>
<path d="M1510 1541 c0 -10 -7 -24 -15 -31 -8 -7 -12 -17 -9 -22 4 -6 -3 -5
-15 2 -12 6 -27 9 -34 6 -9 -3 -9 -5 1 -5 17 -1 15 -13 -13 -75 -14 -30 -25
-60 -25 -65 0 -6 -4 -11 -10 -11 -5 0 -10 -6 -10 -12 1 -17 39 -67 40 -51 0 6
6 18 13 25 11 13 33 49 64 109 13 26 28 149 18 149 -3 0 -5 -8 -5 -19z"/>
<path d="M1605 1552 c14 -10 12 -46 -3 -64 -14 -17 0 -34 18 -23 6 3 10 2 10
-3 0 -6 -7 -13 -16 -16 -16 -6 -11 -26 7 -26 6 0 7 5 4 10 -3 6 4 10 17 10 13
0 30 6 37 13 11 10 13 9 9 -3 -4 -11 1 -16 20 -15 14 0 27 -6 30 -14 3 -10 -1
-12 -14 -8 -17 6 -17 5 -2 -5 15 -11 15 -13 0 -25 -16 -12 -16 -13 0 -7 15 5
48 45 48 59 0 3 -9 5 -21 5 -11 0 -18 4 -15 9 3 4 -3 16 -14 26 -14 13 -17 22
-10 30 16 20 -35 55 -79 55 -20 0 -31 -4 -26 -8z m97 -73 l33 -30 -32 15 c-18
9 -43 16 -58 16 -24 0 -32 10 -18 23 14 15 44 5 75 -24z"/>
<path d="M2891 1554 c-1 -7 -21 -12 -48 -13 -27 -1 -61 -3 -78 -3 -16 -1 -43
2 -60 6 -27 6 -27 5 8 -14 32 -18 44 -20 69 -11 17 6 46 11 64 11 29 0 40 -8
77 -55 23 -30 49 -76 57 -102 l15 -48 3 44 c2 24 -1 47 -6 50 -5 3 -17 22 -27
41 -10 19 -27 41 -37 49 -11 7 -23 23 -28 35 -5 11 -9 16 -9 10z"/>
<path d="M1350 1537 c-14 -8 -24 -19 -22 -26 1 -7 -2 -10 -7 -7 -14 9 -30 -17
-37 -61 l-6 -42 41 1 c22 0 38 4 35 9 -3 5 -1 9 5 9 6 0 8 7 5 15 -5 11 -2 13
10 9 9 -3 13 -11 10 -16 -4 -6 4 -4 17 3 16 8 20 14 10 17 -11 4 -11 6 0 14
10 7 6 8 -13 5 -16 -2 -28 0 -28 4 0 5 -7 6 -15 3 -8 -4 -12 -11 -8 -17 3 -5
1 -7 -4 -4 -14 8 -35 -17 -26 -29 4 -5 2 -4 -6 3 -33 28 22 66 114 79 39 5 46
8 30 15 -14 5 -16 8 -5 9 8 2 2 6 -15 10 -45 11 -58 11 -85 -3z"/>
<path d="M2746 1462 c-2 -4 -4 -61 -4 -127 0 -66 -3 -151 -7 -189 -9 -75 4
-85 25 -20 9 26 15 33 23 25 19 -19 39 -13 35 12 -2 16 -9 21 -24 20 -14 -2
-24 4 -26 15 -9 33 3 168 18 209 9 24 13 47 9 53 -7 12 -42 14 -49 2z"/>
<path d="M1538 1451 c7 -4 12 -12 10 -17 -4 -15 31 -94 42 -94 14 0 13 7 -15
67 -14 29 -31 53 -38 53 -9 0 -9 -2 1 -9z"/>
<path d="M1850 1388 c0 -14 -3 -18 -8 -11 -11 17 -39 -7 -48 -43 -4 -16 -12
-36 -19 -44 -17 -21 -26 -50 -15 -50 5 0 11 10 13 23 3 12 4 -4 2 -37 -2 -36
1 -53 6 -45 5 8 9 24 9 36 0 12 8 24 18 26 16 4 16 5 0 6 -14 1 -16 7 -12 34
3 17 11 45 16 61 l11 28 18 -23 19 -24 0 43 c0 23 -2 42 -5 42 -3 0 -5 -10 -5
-22z"/>
<path d="M796 1378 c-20 -28 -20 -48 -2 -48 8 0 15 14 18 35 2 19 3 35 2 35
-2 0 -10 -10 -18 -22z"/>
<path d="M1877 1373 c-3 -4 -10 -35 -16 -67 -6 -33 -19 -68 -28 -79 -17 -20
-17 -20 2 -12 11 4 40 11 65 14 l45 7 -37 7 c-43 9 -42 6 -28 77 10 50 8 72
-3 53z"/>
<path d="M2530 1355 c-9 -10 -10 -30 -6 -63 4 -26 11 -73 15 -104 6 -51 12
-63 55 -107 60 -61 72 -115 35 -150 l-24 -22 45 3 c38 3 46 7 48 26 2 12 -1
22 -7 22 -6 0 -11 10 -11 23 -1 23 -27 70 -71 128 -36 48 -49 95 -52 183 -1
42 -5 76 -8 76 -4 0 -12 -7 -19 -15z"/>
<path d="M1508 1346 c-32 -11 -37 -26 -9 -26 17 0 49 27 40 33 -2 2 -16 -1
-31 -7z"/>
<path d="M1630 1330 c-13 -8 -12 -13 8 -32 18 -19 22 -20 22 -6 0 9 -5 20 -10
23 -6 4 -8 11 -5 16 8 11 4 11 -15 -1z"/>
<path d="M2356 1318 c-8 -33 -7 -40 4 -33 6 3 10 1 10 -4 0 -16 26 -13 40 4
10 13 10 19 -5 35 -24 26 -41 25 -49 -2z"/>
<path d="M1235 1308 c3 -16 7 -40 10 -54 4 -16 2 -23 -5 -19 -18 11 -11 -10
10 -28 11 -9 20 -24 20 -32 0 -8 4 -15 9 -15 5 0 3 26 -5 58 -7 31 -13 62 -14
68 0 5 -7 19 -15 30 -15 18 -15 18 -10 -8z"/>
<path d="M1305 1297 c3 -24 1 -36 -5 -32 -5 3 -10 -1 -10 -9 0 -9 5 -16 11
-16 7 0 9 -12 7 -30 -8 -53 9 -42 20 13 8 40 7 55 -3 67 -7 8 -15 22 -18 30
-4 8 -4 -2 -2 -23z"/>
<path d="M30 1296 c0 -9 -8 -17 -17 -17 -10 -1 4 -5 31 -10 28 -4 53 -6 58 -3
15 9 8 34 -9 34 -10 0 -28 3 -40 6 -17 5 -23 2 -23 -10z"/>
<path d="M1483 1296 c4 -10 1 -13 -9 -9 -10 4 -17 -2 -21 -15 -3 -15 -16 -22
-44 -27 -43 -7 -59 -28 -58 -72 0 -25 1 -26 9 -8 5 11 9 16 9 12 1 -5 14 0 30
9 16 9 27 23 24 30 -2 6 0 15 6 19 6 3 11 -1 11 -10 0 -14 4 -14 35 -1 19 8
35 12 35 9 0 -3 7 0 15 7 9 8 15 8 15 2 0 -6 8 -10 18 -10 31 3 72 -12 72 -25
0 -9 -22 -13 -72 -15 -100 -3 -140 -13 -128 -31 6 -11 12 -12 22 -3 17 14 68
21 166 23 39 1 72 5 72 9 0 24 -17 43 -54 62 -49 26 -91 35 -80 17 5 -8 3 -9
-6 -4 -8 5 -18 1 -27 -11 -14 -18 -15 -18 -13 6 3 42 1 50 -16 50 -10 0 -14
-6 -11 -14z"/>
<path d="M505 1279 c-4 -5 -1 -24 5 -40 11 -25 10 -32 -6 -50 -16 -18 -17 -21
-1 -36 9 -9 19 -14 22 -11 8 8 14 118 8 135 -6 16 -19 17 -28 2z"/>
<path d="M2937 1263 c-10 -10 -8 -76 3 -93 8 -12 10 -9 10 11 0 15 3 41 6 58
6 29 -3 40 -19 24z"/>
<path d="M585 1247 c-2 -6 -6 -48 -9 -92 -5 -55 -3 -75 4 -65 5 8 10 28 10 43
0 15 11 49 24 75 l24 48 -24 2 c-14 1 -26 -4 -29 -11z"/>
<path d="M70 1240 c0 -6 -8 -10 -17 -8 -10 2 -19 -4 -21 -14 -6 -28 33 -22 46
7 7 15 8 25 2 25 -6 0 -10 -5 -10 -10z"/>
<path d="M2090 1240 c-41 -6 -39 -7 25 -8 47 0 64 2 50 8 -11 5 -22 8 -25 8
-3 -1 -25 -4 -50 -8z"/>
<path d="M295 1228 c-8 -20 23 -128 37 -128 6 0 7 10 3 28 -4 15 -11 44 -15
65 -9 44 -17 56 -25 35z"/>
<path d="M2597 1191 c-6 -24 0 -31 25 -31 13 0 18 7 18 25 0 31 -35 35 -43 6z"/>
<path d="M875 1170 c-1 -3 -6 -26 -9 -52 -6 -40 -5 -48 8 -48 9 0 16 9 16 20
0 11 6 20 13 20 7 1 5 6 -5 14 -30 22 0 36 82 37 41 0 84 4 94 8 11 4 -29 7
-88 7 -59 -1 -109 -3 -111 -6z"/>
<path d="M26 1145 c5 -19 2 -25 -10 -25 -20 0 -21 -16 -2 -23 20 -8 42 13 50
46 6 24 4 27 -19 27 -22 0 -25 -3 -19 -25z"/>
<path d="M1759 1131 c-11 -24 -16 -28 -28 -18 -12 10 -13 9 -4 -8 13 -25 5
-55 -9 -34 -7 11 -8 9 -6 -6 2 -14 -2 -20 -14 -19 -10 1 -16 -2 -13 -6 3 -5 1
-11 -4 -14 -5 -3 -11 3 -14 14 -3 12 0 20 8 20 7 0 16 7 19 16 10 26 7 29 -9
8 -15 -18 -15 -18 -9 9 4 17 2 27 -5 27 -6 0 -12 -9 -12 -20 -1 -11 -3 -24 -4
-30 -1 -5 -3 -19 -4 -31 0 -11 -5 -18 -10 -14 -5 3 -12 -4 -16 -15 -6 -19 -50
-38 -62 -27 -3 4 -5 18 -5 32 0 14 -4 25 -8 25 -4 0 -6 -13 -5 -29 2 -26 -1
-30 -34 -34 -20 -3 -48 1 -63 8 -16 8 -28 10 -28 6 0 -9 66 -41 85 -41 8 0 20
-9 28 -20 12 -18 15 -18 20 -5 4 8 1 15 -6 15 -8 0 -7 3 2 9 8 5 20 7 27 4 17
-6 135 70 161 105 11 15 23 37 27 50 7 21 13 22 124 24 122 1 176 3 277 8 116
5 -1 16 -202 19 l-191 3 -13 -31z"/>
<path d="M1300 1141 c0 -6 5 -11 10 -11 6 0 10 -10 9 -22 0 -15 -3 -18 -6 -8
-11 26 -29 39 -44 29 -11 -7 -11 -9 4 -9 16 0 21 -14 18 -55 -2 -15 0 -17 7
-6 8 10 16 5 36 -25 14 -21 26 -33 26 -25 0 7 -9 26 -20 42 -17 23 -19 32 -10
50 7 11 10 22 8 23 -2 1 -11 8 -20 15 -12 9 -18 10 -18 2z"/>
<path d="M107 1120 c-16 -26 -21 -160 -4 -137 7 9 10 9 14 -1 2 -6 9 -10 14
-6 11 6 11 121 0 149 -7 18 -8 18 -24 -5z"/>
<path d="M1549 1136 c-3 -3 -23 -6 -46 -7 -38 -3 -52 -19 -16 -19 9 0 13 -6 9
-15 -4 -12 0 -14 22 -9 28 7 42 20 42 42 0 13 -4 15 -11 8z"/>
<path d="M1377 1107 c3 -5 -1 -13 -8 -18 -10 -6 -11 -9 -1 -9 6 0 12 -7 12
-15 0 -8 4 -15 9 -15 14 0 22 29 10 36 -6 3 -8 12 -6 18 3 7 -1 13 -9 13 -7 0
-10 -5 -7 -10z"/>
<path d="M1639 1115 c-1 -3 -3 -9 -4 -15 -1 -5 -3 -17 -4 -26 0 -9 -6 -12 -13
-8 -7 4 -8 3 -4 -4 12 -19 32 -3 34 28 1 17 0 30 -3 30 -3 0 -6 -2 -6 -5z"/>
<path d="M2930 1106 c0 -8 3 -22 6 -31 9 -23 23 0 17 26 -6 22 -23 26 -23 5z"/>
<path d="M1800 1090 c-11 -7 -5 -10 23 -10 20 0 37 5 37 10 0 13 -40 13 -60 0z"/>
<path d="M1888 1030 c-2 -44 1 -70 7 -70 7 0 11 28 11 70 1 91 -13 91 -18 0z"/>
<path d="M1950 1084 c0 -11 5 -14 16 -10 9 3 20 6 25 6 5 0 9 5 9 10 0 6 -11
10 -25 10 -16 0 -25 -6 -25 -16z"/>
<path d="M2165 1092 c-3 -3 -5 -9 -5 -14 0 -11 47 -10 54 1 6 9 -40 22 -49 13z"/>
<path d="M2430 1082 c2 -34 70 -56 70 -22 0 25 -18 36 -26 16 -3 -9 -10 -16
-16 -16 -5 0 -7 4 -4 9 3 5 -1 11 -9 15 -8 3 -15 2 -15 -2z"/>
<path d="M0 1043 c0 -35 1 -36 15 -17 19 25 19 54 0 54 -11 0 -15 -11 -15 -37z"/>
<path d="M536 1028 c-13 -105 -14 -138 -5 -138 5 0 12 7 16 16 4 12 14 14 35
10 21 -4 28 -2 25 7 -2 6 -16 11 -30 10 -25 -1 -25 -1 -21 68 4 75 -11 96 -20
27z"/>
<path d="M801 1023 c-1 -29 4 -53 9 -53 12 0 12 57 0 85 -6 15 -9 6 -9 -32z"/>
<path d="M896 1059 c4 -8 0 -9 -15 -4 -26 8 -27 -10 -7 -87 23 -85 25 -89 55
-82 24 5 25 4 8 -9 -16 -14 -16 -16 10 -33 16 -10 39 -17 53 -16 20 1 22 0 10
-8 -9 -6 -10 -10 -3 -10 6 0 15 5 18 11 4 5 17 9 28 8 39 -3 49 1 44 15 -3 8
-1 17 6 20 7 2 -22 5 -64 5 -60 1 -78 4 -83 17 -9 22 -8 24 12 25 9 1 4 4 -13
8 -23 5 -30 12 -29 29 1 25 -6 28 -24 10 -9 -9 -12 -6 -12 14 0 18 5 25 18 24
9 0 17 6 17 14 0 9 -7 14 -17 12 -10 -2 -18 2 -18 8 0 5 11 10 25 10 14 0 25
-4 25 -8 0 -5 10 -8 23 -6 12 1 26 3 30 3 5 1 5 6 1 12 -3 6 -17 9 -30 6 -13
-2 -32 2 -41 9 -22 16 -37 18 -27 3z"/>
<path d="M2025 1043 c-8 -33 -2 -37 32 -25 19 7 22 11 9 11 -11 1 -16 6 -13
15 3 8 0 17 -8 20 -8 3 -16 -5 -20 -21z"/>
<path d="M355 909 c4 -148 10 -186 22 -141 5 19 8 20 22 10 11 -9 10 -6 -3 9
-16 19 -18 36 -14 126 2 68 8 110 17 121 7 9 10 16 5 17 -5 0 -19 2 -31 5 -21
4 -21 3 -18 -147z"/>
<path d="M1770 1017 c0 -25 -4 -48 -9 -52 -5 -3 -15 -30 -21 -59 -9 -42 -21
-65 -56 -102 -24 -26 -44 -45 -44 -41 0 4 -8 -1 -18 -10 -64 -60 -87 -67 -102
-28 -8 22 -24 38 -18 18 6 -18 -15 -12 -47 13 -46 35 -124 109 -105 99 12 -6
13 -5 3 6 -7 7 -13 23 -13 35 0 26 -28 40 -36 19 -19 -49 52 -134 170 -204
l80 -47 50 35 c74 54 136 112 152 142 8 16 14 46 14 69 0 22 4 40 9 40 8 0 5
100 -4 109 -3 2 -5 -16 -5 -42z"/>
<path d="M1804 1044 c3 -9 6 -20 6 -25 0 -5 11 -9 25 -9 30 0 33 16 5 25 -11
4 -18 11 -15 16 4 5 -1 9 -10 9 -12 0 -15 -5 -11 -16z"/>
<path d="M1950 1040 c0 -11 7 -23 15 -27 21 -7 25 -2 18 25 -7 28 -33 29 -33
2z"/>
<path d="M2085 1050 c-17 -7 -17 -9 -2 -9 9 -1 17 -5 17 -11 0 -15 27 -12 33
4 10 26 -10 32 -48 16z"/>
<path d="M2159 1058 c-9 -31 -5 -38 22 -38 27 0 29 2 19 20 -9 16 -37 28 -41
18z"/>
<path d="M1268 1032 c-23 -4 -23 -18 -2 -26 20 -8 27 -3 22 16 -1 7 -11 12
-20 10z"/>
<path d="M2340 1031 c0 -8 60 -31 80 -31 22 0 1 14 -41 26 -21 7 -39 9 -39 5z"/>
<path d="M2813 1027 c4 -10 7 -25 7 -34 0 -8 7 -13 18 -11 25 5 21 28 -8 47
-23 15 -24 15 -17 -2z"/>
<path d="M206 994 c-3 -9 -6 -30 -6 -47 l1 -32 14 33 c8 17 21 32 28 32 8 0
17 7 21 15 4 11 -2 15 -23 15 -17 0 -31 -6 -35 -16z"/>
<path d="M1947 980 c-5 -18 0 -20 54 -20 37 0 59 4 59 11 0 7 -11 9 -27 6 -15
-3 -40 1 -54 9 -24 12 -27 12 -32 -6z"/>
<path d="M1800 970 c0 -5 14 -10 31 -10 17 0 28 4 24 10 -3 6 -17 10 -31 10
-13 0 -24 -4 -24 -10z"/>
<path d="M2729 969 c-11 -7 -9 -9 8 -9 14 0 30 -14 48 -43 23 -36 81 -87 100
-87 7 0 -80 114 -97 127 -22 17 -44 22 -59 12z"/>
<path d="M1258 963 c6 -2 12 -13 12 -24 0 -17 -3 -18 -21 -9 -24 13 -41 4 -19
-11 13 -8 13 -11 -2 -20 -10 -5 -18 -17 -18 -24 0 -12 4 -11 18 3 9 9 30 27
46 39 32 26 29 53 -6 52 -13 0 -17 -3 -10 -6z"/>
<path d="M1831 921 c18 -14 44 -27 58 -29 15 -2 30 -7 36 -13 5 -5 17 -9 28
-9 10 0 15 -4 12 -10 -3 -5 -1 -10 4 -10 6 0 11 6 11 13 0 7 14 12 33 13 54 1
92 13 79 26 -8 8 -15 8 -25 0 -9 -8 -42 -10 -97 -6 -87 5 -120 16 -120 38 0 8
-11 14 -26 14 l-27 0 34 -27z"/>
<path d="M2450 924 c-23 -8 -41 -8 -53 -2 -23 12 -42 1 -28 -16 17 -20 205 -4
198 17 -5 15 -72 15 -117 1z"/>
<path d="M210 835 c0 -32 2 -56 5 -53 8 8 9 98 1 105 -3 4 -6 -20 -6 -52z"/>
<path d="M1840 840 c-11 -22 -20 -48 -20 -59 0 -10 -17 -40 -38 -65 -35 -42
-68 -114 -57 -124 2 -2 14 16 27 41 33 64 76 124 126 174 23 23 42 45 42 47 0
2 -14 9 -30 15 -29 10 -31 8 -50 -29z"/>
<path d="M2947 813 c-38 -35 -53 -44 -71 -39 -17 4 -26 1 -30 -10 -4 -11 -12
-14 -24 -9 -26 12 -121 6 -181 -11 -50 -14 -55 -14 -64 1 -7 13 -21 16 -72 13
-35 -1 -67 0 -71 4 -4 4 -17 5 -29 2 -16 -4 -29 3 -48 25 -29 35 -43 41 -27
11 17 -32 6 -38 -70 -38 -69 -1 -120 -12 -170 -37 -14 -7 -41 -16 -60 -21 -44
-10 -42 -9 -62 -18 -24 -11 -23 -57 2 -88 10 -14 16 -28 13 -32 -3 -3 -1 -6 5
-6 7 0 12 -4 12 -9 0 -5 -11 -4 -24 2 -13 7 -23 14 -20 18 2 3 -7 20 -20 38
-23 31 -24 31 -46 13 -22 -17 -21 -50 1 -37 5 4 9 0 9 -8 0 -21 -29 -30 -36
-12 -4 8 -11 12 -16 9 -6 -4 -2 5 7 20 15 22 15 26 2 26 -8 0 -18 8 -21 17 -6
15 -8 15 -16 3 -6 -8 -10 -10 -11 -5 -2 29 -18 -37 -18 -79 -1 -48 -1 -49 19
-31 11 10 17 22 14 26 -3 5 2 9 11 9 10 0 15 -6 13 -17 -2 -10 -10 -17 -16
-16 -7 2 -12 -6 -12 -17 0 -13 -5 -18 -15 -14 -12 5 -15 -2 -15 -27 1 -48 17
-113 30 -117 5 -2 8 -7 5 -12 -3 -4 5 -72 17 -150 18 -116 20 -145 9 -162 -17
-27 -8 -33 14 -8 24 27 72 27 80 0 9 -28 25 -25 25 5 0 23 -33 53 -52 47 -5
-1 -8 13 -8 31 -1 29 -2 30 -14 14 -7 -9 -17 -17 -21 -17 -7 0 1 134 11 175 4
18 4 18 -6 3 -6 -10 -15 -18 -20 -18 -10 0 -35 69 -27 76 2 3 20 -4 39 -16
l35 -20 41 30 c50 36 55 48 10 20 -18 -11 -44 -20 -58 -20 -27 0 -73 27 -66
38 2 4 -1 16 -5 27 -9 18 -9 18 -5 -3 2 -12 0 -20 -5 -16 -14 8 -11 90 4 103
8 6 17 8 21 4 4 -4 4 0 1 8 -10 25 60 62 102 54 52 -9 84 -78 61 -132 -6 -15
-13 -40 -14 -54 -2 -14 -15 -52 -30 -85 -14 -32 -28 -72 -30 -89 -4 -27 -2
-26 19 14 12 25 28 46 34 48 12 4 34 -146 26 -177 -3 -11 -1 -20 5 -20 5 0 13
-12 17 -28 4 -15 10 -21 12 -15 4 11 -35 263 -42 271 -1 1 4 28 11 59 9 41 11
99 7 205 -6 134 -4 148 10 148 14 0 17 -12 17 -72 0 -90 12 -81 19 15 5 55 10
72 21 72 8 0 20 7 27 15 10 13 12 10 13 -16 0 -17 3 -47 6 -65 4 -19 3 -31 -1
-27 -4 4 -16 -9 -27 -28 -21 -39 -17 -60 6 -29 12 16 14 14 19 -21 4 -22 11
-114 17 -204 20 -321 21 -330 41 -330 17 0 19 9 19 98 0 53 4 103 9 111 5 8 6
21 1 30 -11 23 -38 119 -45 166 -4 22 -12 72 -19 110 -8 41 -10 101 -7 145 6
73 7 75 34 78 16 2 27 -1 27 -9 0 -9 3 -9 14 0 10 9 16 9 21 1 5 -7 11 -8 19
-1 14 12 288 4 296 -9 5 -8 72 -19 123 -19 19 -1 27 -6 27 -19 0 -28 30 -66
43 -53 8 8 5 15 -9 26 -10 8 -15 15 -10 15 5 0 3 7 -4 15 -16 20 1 41 25 31
13 -5 14 -10 7 -19 -24 -28 61 -16 136 19 79 38 105 67 100 113 l-3 30 -48
-46z m-129 -96 c2 -12 -3 -17 -17 -17 -12 0 -21 6 -21 13 0 31 32 34 38 4z
m-810 -77 c-2 -54 -13 -58 -31 -12 -14 34 -13 38 2 44 28 12 31 9 29 -32z
m189 -495 c4 -118 -12 -91 -21 35 -5 75 -4 91 6 75 6 -11 13 -60 15 -110z"/>
<path d="M60 813 c0 -17 5 -35 11 -39 17 -10 5 -74 -25 -134 -14 -28 -26 -56
-26 -61 0 -18 21 -9 30 14 6 12 22 42 35 66 28 50 27 89 -6 151 l-18 35 -1
-32z"/>
<path d="M1303 801 c20 -47 50 -81 93 -107 45 -26 54 -29 54 -14 0 6 -4 10
-10 10 -5 0 -41 31 -79 69 -51 51 -66 62 -58 42z"/>
<path d="M1010 760 l-25 -8 27 -1 c16 -1 32 -9 38 -21 11 -20 55 -29 48 -9 -7
22 -63 46 -88 39z"/>
<path d="M2231 693 c-9 -16 -12 -16 -21 -3 -9 12 -10 10 -5 -9 5 -16 4 -21 -4
-17 -8 5 -11 -24 -9 -101 1 -106 1 -107 7 -32 4 47 13 85 24 102 10 15 15 32
12 37 -3 6 -2 10 3 10 5 0 9 7 9 15 0 19 -4 19 -16 -2z"/>
<path d="M1334 665 c51 -69 76 -97 76 -85 0 21 -31 64 -69 95 l-36 30 29 -40z"/>
<path d="M884 666 c-18 -21 -25 -23 -70 -16 -27 5 -59 6 -71 3 -14 -3 -23 -1
-23 7 0 10 -3 10 -14 0 -26 -21 -93 -26 -198 -15 -83 10 -107 -3 -143 -75 -20
-40 -22 -50 -10 -50 8 0 15 4 15 10 0 5 15 30 33 55 27 38 36 44 57 39 14 -3
70 -9 124 -12 l100 -7 33 -55 c39 -64 40 -101 3 -111 -25 -7 -25 -7 4 -8 28
-1 29 -2 22 -47 -3 -26 -11 -53 -17 -60 -9 -11 -8 -14 3 -14 17 0 38 73 38
131 0 43 -24 99 -64 147 l-26 30 28 3 c59 8 318 3 332 -6 8 -5 22 -10 30 -10
13 0 16 -32 23 -195 5 -125 4 -217 -3 -257 -11 -64 -5 -139 12 -149 17 -10 18
1 8 58 -8 43 -7 63 5 97 9 28 15 79 15 142 0 64 4 100 12 105 16 10 64 -49 84
-103 13 -34 22 -43 40 -43 21 0 24 -5 24 -39 0 -42 -20 -60 -41 -35 -6 8 -14
12 -16 10 -3 -3 7 -17 21 -31 21 -21 25 -30 15 -41 -6 -8 -22 -14 -35 -14 -17
0 -31 -12 -49 -40 -14 -22 -25 -46 -25 -55 0 -23 28 -18 36 8 10 35 35 57 64
57 35 0 80 -35 81 -63 1 -19 2 -19 6 -3 3 10 -4 31 -16 46 -17 24 -21 44 -22
137 -1 59 4 137 10 173 9 47 9 73 2 93 -6 16 -11 42 -11 58 0 16 -6 29 -12 30
-7 0 -21 2 -30 4 -10 2 -18 -1 -18 -6 0 -5 4 -9 10 -9 16 0 32 -39 22 -56 -8
-14 -12 -13 -28 11 -26 36 -74 89 -77 84 -1 -2 -9 -17 -17 -33 l-15 -30 -4 30
c-4 26 -6 24 -21 -26 l-18 -55 -1 68 c-1 37 2 67 5 67 3 0 14 -5 25 -10 15 -8
19 -7 19 4 0 9 -17 20 -40 27 -22 7 -40 15 -40 18 0 3 -4 12 -9 20 -7 10 -13
11 -30 2 -16 -9 -28 -8 -52 5 -17 8 -40 14 -50 11 -10 -3 -19 -1 -21 4 -2 4
-12 -2 -24 -15z m306 -138 c0 -9 3 -9 9 1 7 11 15 4 35 -28 38 -59 22 -72 -25
-20 -40 44 -47 59 -29 59 6 0 10 -6 10 -12z m-26 -40 c6 -7 24 -30 40 -50 16
-21 33 -38 39 -38 5 0 20 11 33 25 13 14 29 25 35 25 7 0 -2 -15 -20 -34 -31
-32 -33 -38 -27 -80 9 -58 -5 -60 -22 -3 -11 34 -67 102 -87 107 -3 0 -15 5
-27 10 -19 7 -20 9 -4 9 14 1 16 4 7 14 -19 24 10 37 33 15z"/>
<path d="M2391 654 c-22 -19 -48 -55 -57 -80 -17 -44 -17 -47 6 -122 33 -109
68 -143 160 -156 25 -4 59 -10 75 -13 20 -3 27 -2 20 5 -5 5 -34 13 -63 16
-51 6 -123 35 -147 60 -14 14 -39 121 -38 158 1 15 8 36 15 45 14 19 48 27 48
11 0 -5 5 -6 11 -3 14 9 2 20 -24 20 -34 0 -31 24 8 60 48 46 36 45 -14 -1z"/>
<path d="M1830 667 c0 -8 11 -19 25 -25 28 -13 30 -10 15 19 -12 22 -40 26
-40 6z"/>
<path d="M2276 638 c-21 -29 -22 -80 -2 -72 20 8 29 36 15 44 -8 6 -8 13 0 29
15 28 6 27 -13 -1z"/>
<path d="M1644 619 c-10 -12 -31 -30 -47 -41 -30 -22 -32 -21 -122 38 l-28 18
8 -78 c4 -49 2 -109 -6 -163 -8 -55 -9 -87 -3 -91 15 -10 34 -129 34 -211 0
-39 1 -71 3 -71 1 0 17 -4 35 -9 33 -10 34 -6 8 28 -20 25 -15 37 14 33 42 -6
71 14 68 46 -2 21 1 27 17 27 14 0 19 -6 17 -20 -4 -20 -4 -20 12 0 14 18 15
19 16 2 0 -10 -5 -27 -10 -38 -7 -13 -7 -19 0 -19 5 0 10 -7 10 -15 0 -17 -16
-20 -25 -6 -8 13 -47 8 -73 -11 -20 -14 -21 -16 -6 -29 13 -11 17 -10 25 4 12
21 38 22 45 2 4 -9 19 -15 41 -15 33 0 35 1 28 27 -17 70 -26 140 -22 169 7
42 -7 39 -68 -13 -27 -23 -53 -39 -59 -36 -5 4 7 20 29 37 21 17 54 46 73 64
l35 33 -7 97 c-4 53 -9 106 -11 117 -2 11 -4 25 -4 30 -1 14 -38 -48 -42 -70
-2 -10 8 -31 24 -46 22 -22 27 -37 27 -74 0 -40 -5 -52 -34 -81 -71 -71 -174
-30 -184 74 -4 47 -2 54 26 82 29 28 48 34 98 31 15 -2 23 5 27 21 7 26 -1 38
-12 19 -6 -9 -18 -11 -35 -7 -15 3 -34 1 -45 -6 -25 -15 -30 -10 -38 36 l-6
37 28 -11 c37 -14 85 -19 85 -9 0 4 -8 9 -17 11 -15 3 -14 5 5 10 14 4 20 2
16 -4 -5 -7 3 -9 22 -4 23 6 27 5 17 -5 -7 -7 -13 -18 -13 -23 0 -6 14 4 30
23 26 29 29 39 24 70 -8 46 -7 45 -30 20z m-99 -489 c10 -11 24 -20 32 -20 8
0 11 -4 8 -10 -11 -17 -41 -11 -63 13 -12 13 -19 27 -15 30 10 11 19 8 38 -13z"/>
<path d="M2696 620 c-12 -61 -15 -108 -7 -135 7 -29 8 -29 15 15 15 89 16 111
7 128 -8 14 -10 13 -15 -8z"/>
<path d="M795 580 c9 -14 9 -82 1 -111 -5 -17 -5 -20 3 -10 8 12 12 12 25 2
19 -16 22 0 5 31 -8 15 -8 19 0 14 6 -4 11 -4 11 -1 0 10 -40 85 -46 85 -3 0
-2 -5 1 -10z"/>
<path d="M876 548 c8 -24 18 -92 23 -153 l10 -110 -5 124 c-3 81 -10 133 -20
152 -21 41 -23 36 -8 -13z"/>
<path d="M1018 548 c-49 -78 -70 -152 -94 -326 -7 -45 -24 -40 -62 18 -31 48
-34 50 -78 50 -32 0 -54 -6 -72 -21 l-27 -22 25 7 c66 19 123 6 145 -32 23
-38 54 -57 68 -43 23 23 27 8 27 -84 0 -166 17 -102 23 88 6 188 26 318 53
345 13 12 20 42 10 42 -2 0 -10 -10 -18 -22z"/>
<path d="M1056 543 c-13 -49 -17 -87 -8 -78 5 6 12 29 16 53 6 42 2 57 -8 25z"/>
<path d="M2514 553 c4 -4 18 -8 30 -8 13 0 41 -15 63 -33 46 -36 53 -38 53
-16 0 9 -9 18 -20 21 -11 3 -20 9 -20 14 0 5 -9 9 -19 9 -11 0 -22 4 -25 8 -2
4 -19 9 -37 10 -18 1 -29 -1 -25 -5z"/>
<path d="M1737 533 c-10 -10 -8 -53 2 -53 5 0 14 14 20 30 8 23 7 30 -3 30 -7
0 -16 -3 -19 -7z"/>
<path d="M1363 500 c4 -14 7 -31 7 -37 0 -7 7 -13 15 -13 22 0 18 34 -7 56
-21 19 -21 19 -15 -6z"/>
<path d="M1868 478 c-32 -31 -36 -68 -10 -91 37 -33 120 -7 109 34 -3 11 -1
17 4 13 17 -10 9 43 -9 59 -25 23 -61 17 -94 -15z m92 -7 c0 -23 -28 -35 -46
-20 -11 9 -14 8 -14 -4 0 -14 -20 -27 -41 -27 -5 0 -9 6 -9 14 0 11 73 48 108
55 1 1 2 -8 2 -18z"/>
<path d="M2278 423 c-17 -33 -14 -40 10 -24 8 4 12 19 10 32 -3 23 -4 23 -20
-8z"/>
<path d="M1524 420 c-59 -24 -71 -101 -25 -152 26 -29 32 -32 50 -20 12 6 29
12 38 12 14 -1 13 -4 -7 -16 l-25 -15 30 6 c72 14 108 103 64 159 -19 25 -40
35 -38 19 1 -5 1 -14 0 -21 -2 -20 -21 -3 -21 19 0 21 -28 25 -66 9z m64 -36
c12 -8 22 -12 22 -8 0 4 9 -2 20 -14 27 -29 25 -50 -5 -58 -13 -3 -29 -12 -36
-20 -26 -31 -90 -5 -103 42 -8 27 28 74 58 74 12 0 32 -7 44 -16z"/>
<path d="M1524 359 c-19 -22 -13 -43 19 -63 19 -12 70 11 60 28 -4 7 -8 6 -11
-2 -4 -13 -32 -17 -32 -4 0 14 29 48 30 35 0 -7 7 -13 15 -13 24 0 17 14 -12
28 -37 17 -47 15 -69 -9z"/>
<path d="M425 391 c-7 -14 -30 -44 -49 -65 -58 -62 -34 -53 32 13 33 32 70 61
83 63 18 3 14 5 -14 9 -34 5 -40 2 -52 -20z"/>
<path d="M839 380 c-6 -45 -4 -58 7 -48 3 3 4 26 2 49 l-3 44 -6 -45z"/>
<path d="M1753 351 c-15 -49 -16 -61 -3 -61 10 0 24 59 18 85 -2 9 -8 -1 -15
-24z"/>
<path d="M1351 335 c-1 -30 35 -100 44 -86 8 13 -13 71 -25 71 -5 0 -11 8 -13
18 -4 14 -5 14 -6 -3z"/>
<path d="M2682 279 c7 -5 58 -8 113 -8 55 0 96 2 90 4 -23 8 -215 11 -203 4z"/>
<path d="M2611 150 c1 -72 6 -130 11 -130 4 0 8 46 8 102 0 56 2 99 4 97 2 -2
6 -51 9 -107 3 -57 8 -106 11 -110 3 -3 6 58 6 136 l0 142 -25 0 -26 0 2 -130z"/>
<path d="M245 240 l-30 -8 35 -1 c19 0 42 4 50 9 12 8 11 10 -5 9 -11 -1 -33
-5 -50 -9z"/>
<path d="M1716 208 c-9 -36 -7 -78 4 -78 6 0 10 23 10 50 0 54 -4 63 -14 28z"/>
<path d="M1764 133 c-24 -56 -44 -113 -39 -113 10 0 45 71 53 108 12 52 7 54
-14 5z"/>
<path d="M1330 111 c0 -9 41 -40 70 -53 11 -5 9 -7 -7 -7 -19 -1 -23 -6 -22
-28 2 -24 2 -25 6 -6 3 16 11 23 28 23 17 0 25 -7 28 -23 4 -20 4 -20 5 3 1
18 -12 36 -44 63 -45 37 -64 45 -64 28z"/>
<path d="M1256 33 c-13 -14 -5 -33 14 -33 11 0 20 6 20 14 0 15 -24 28 -34 19z"/>
<path d="M1753 17 c-20 -11 -17 -12 23 -12 38 0 42 2 27 13 -20 15 -22 15 -50
-1z"/>
</g>
</svg>
