<svg xmlns="http://www.w3.org/2000/svg" width="744" height="453" viewBox="0 0 744 453" version="1.1"><path d="M 339.682 34.750 C 338.516 36.756, 327.037 58.919, 316.245 80 C 309.629 92.925, 296.125 119.250, 286.237 138.500 C 276.349 157.750, 259.149 191.275, 248.015 213 C 236.881 234.725, 223.267 261.275, 217.763 272 C 212.258 282.725, 203.022 300.725, 197.239 312 C 191.456 323.275, 183.020 339.700, 178.493 348.500 C 151.754 400.476, 145.841 412.175, 146.153 412.484 C 146.592 412.920, 154.550 413.204, 163.081 413.089 C 168.853 413.011, 169.803 412.723, 170.808 410.750 C 171.806 408.789, 181.125 390.909, 209.246 337 C 213.120 329.575, 221.229 314.050, 227.267 302.500 C 233.305 290.950, 240.833 276.550, 243.995 270.500 C 247.158 264.450, 255.491 248.475, 262.514 235 C 269.537 221.525, 277.411 206.450, 280.014 201.500 C 282.616 196.550, 290.486 181.475, 297.502 168 C 304.519 154.525, 312.286 139.675, 314.764 135 C 317.241 130.325, 325.331 114.800, 332.742 100.500 C 340.152 86.200, 348.135 70.900, 350.482 66.500 C 359.763 49.097, 367 35.106, 367 34.567 C 367 33.708, 340.183 33.888, 339.682 34.750 M 103.286 90.434 C 95.735 92.824, 90.060 96.865, 86.583 102.329 C 80.716 111.550, 78.971 119.906, 78.933 138.979 C 78.892 158.722, 77.291 181.761, 75.557 187.544 C 72.799 196.741, 65.413 203.183, 55.733 204.831 L 51.500 205.552 51.216 216.248 L 50.933 226.945 53.716 227.518 C 62.389 229.303, 64.718 230.422, 69.051 234.889 C 76.152 242.209, 76.959 246.219, 78.028 279.500 C 78.523 294.900, 79.452 310.425, 80.092 314 C 82.453 327.192, 88.636 336.028, 98.801 340.737 C 103.163 342.758, 106.224 343.291, 116.088 343.745 L 128.073 344.298 127.787 333.899 L 127.500 323.500 119.525 322.710 C 110.380 321.805, 106.429 319.891, 103.537 314.965 C 101.671 311.787, 101.449 309.180, 100.853 283.500 C 100.495 268.100, 99.652 252.575, 98.979 249 C 96.550 236.103, 89.408 225.505, 79.301 219.801 C 76.335 218.127, 74.182 216.475, 74.516 216.129 C 74.850 215.783, 78.133 213.475, 81.812 211 C 96.952 200.813, 100.882 187.657, 100.964 146.886 C 101.028 115.518, 103.107 111.484, 119.914 110.117 L 127.500 109.500 127.500 99.500 L 127.500 89.500 117.500 89.300 C 111.383 89.178, 105.864 89.618, 103.286 90.434 M 384.214 99.144 L 384.500 109.500 392.194 110.125 C 400.867 110.830, 405.772 113.093, 407.822 117.337 C 410.043 121.932, 410.901 131.444, 411.354 156.500 C 411.817 182.070, 412.585 187.110, 417.599 197.500 C 420.780 204.092, 424.379 207.877, 431.846 212.486 C 435.231 214.575, 438 216.402, 438 216.547 C 438 216.691, 435.637 218.143, 432.749 219.773 C 422.725 225.430, 415.951 235.114, 413.002 248 C 412.255 251.265, 411.484 265.079, 411.106 282 C 410.389 314.020, 409.868 316.493, 403 320.472 C 399.721 322.372, 397.499 322.520, 367.790 322.824 L 336.080 323.148 336.673 326.324 C 337.859 332.668, 344.243 350.528, 347.988 357.977 C 353.557 369.052, 362.708 382.254, 371.669 392.138 C 384.681 406.491, 405.462 424.251, 403.616 419.442 C 400.579 411.528, 396.521 398.203, 394.967 391.046 C 392.339 378.938, 390.548 358.735, 391.406 350.888 L 392.130 344.277 400.030 343.618 C 404.375 343.256, 409.957 342.090, 412.435 341.028 C 422.840 336.568, 429.863 326.303, 431.967 312.481 C 432.552 308.642, 433.419 293.125, 433.895 278 C 434.653 253.931, 435.025 249.757, 436.876 244.546 C 440.285 234.952, 447.792 228.815, 457.500 227.684 L 460.500 227.335 460.783 216.168 L 461.066 205 458.283 204.994 C 449.215 204.976, 440.456 198.506, 437.002 189.277 C 434.464 182.493, 433.061 166.070, 433.005 142.500 C 432.933 111.901, 427.847 99.111, 413 92.192 C 408.331 90.017, 405.718 89.566, 395.714 89.208 L 383.928 88.787 384.214 99.144 M 563.305 175.468 C 558.160 177.705, 551.403 184.635, 549.063 190.074 C 547.021 194.821, 546.899 196.657, 546.869 222.927 C 546.839 249.480, 546.939 250.988, 549.055 255.906 C 551.717 262.095, 559.122 269.121, 564.764 270.811 C 571.337 272.781, 579.849 272.289, 585.500 269.613 C 594.842 265.189, 600.237 257.030, 601.547 245.348 C 602.170 239.786, 602.040 239.092, 600.184 238.098 C 597.994 236.926, 588.214 236.597, 585.582 237.607 C 584.415 238.055, 584 239.602, 584 243.501 C 584 247.956, 583.543 249.278, 581.099 251.894 C 577.064 256.214, 571.136 256.290, 566.923 252.077 L 564 249.154 564 223.154 L 564 197.153 566.589 194.077 C 568.750 191.508, 569.897 191, 573.533 191 C 580.392 191, 583.360 194.166, 583.996 202.160 L 584.500 208.500 592.500 208.500 L 600.500 208.500 600.799 201.610 C 601.047 195.898, 600.669 193.844, 598.592 189.598 C 595.722 183.733, 591.261 179.128, 585.515 176.100 C 580.754 173.591, 568.427 173.240, 563.305 175.468 M 612.616 174.813 C 612.129 175.600, 611.789 217.515, 611.946 257.250 L 612 271 620.500 271 L 629 271 629 254.404 C 629 240.500, 629.279 237.336, 630.721 234.895 C 631.668 233.292, 632.870 232.123, 633.393 232.298 C 633.916 232.472, 638.295 241.139, 643.124 251.557 L 651.904 270.500 656.702 271 C 659.341 271.275, 663.591 271.347, 666.147 271.160 L 670.793 270.821 667.775 264.160 C 666.115 260.497, 660.711 249.175, 655.765 239 C 650.819 228.825, 646.158 219.074, 645.407 217.331 C 643.908 213.853, 642.884 215.840, 662.305 184.544 C 665.362 179.618, 667.642 175.231, 667.373 174.794 C 667.103 174.357, 663.360 174, 659.055 174 L 651.228 174 640.364 190.738 L 629.500 207.476 629 190.988 L 628.500 174.500 620.834 174.209 C 616.618 174.050, 612.920 174.321, 612.616 174.813 M 162.256 192.294 L 122.012 209.500 122.038 217 L 122.065 224.500 162.046 241.500 C 184.035 250.850, 202.471 258.650, 203.013 258.833 C 203.605 259.033, 204 256.111, 204 251.532 L 204 243.898 200.750 242.592 C 177.474 233.238, 140 217.418, 140 216.946 C 140 216.611, 144.613 214.479, 150.250 212.210 C 155.887 209.941, 170.175 204.084, 182 199.195 L 203.500 190.307 203.792 182.653 C 203.953 178.444, 203.728 175.020, 203.292 175.044 C 202.856 175.068, 184.390 182.830, 162.256 192.294 M 308.206 182.534 L 308.500 190.315 318.500 194.527 C 324 196.844, 338.285 202.736, 350.243 207.620 C 362.202 212.504, 371.986 216.725, 371.985 217 C 371.984 217.275, 359.500 222.652, 344.242 228.949 C 328.984 235.245, 314.587 241.192, 312.250 242.163 L 308 243.929 308 251.464 C 308 255.609, 308.126 259, 308.280 259 C 308.434 259, 326.772 251.193, 349.030 241.651 L 389.500 224.301 389.791 216.731 C 390.065 209.595, 389.950 209.120, 387.791 208.447 C 386.531 208.054, 368.625 200.537, 348 191.743 C 327.375 182.948, 309.918 175.527, 309.206 175.252 C 308.200 174.864, 307.977 176.487, 308.206 182.534" stroke="none" fill="#b586ec" fill-rule="evenodd"/></svg>